<?xml version="1.0" encoding="utf-8"?>
<!-- Generator: Adobe Illustrator 19.2.0, SVG Export Plug-In . SVG Version: 6.00 Build 0)  -->
<svg version="1.1" id="Layer_1" xmlns="http://www.w3.org/2000/svg" xmlns:xlink="http://www.w3.org/1999/xlink" x="0px" y="0px"
	 viewBox="0 0 125 125" style="enable-background:new 0 0 125 125;" xml:space="preserve">
<g>
	<path d="M44.2,24v-8.3c0-2.3-1.9-4.2-4.2-4.2c-2.3,0-4.2,1.9-4.2,4.2V24c1.4-0.2,2.8-0.3,4.2-0.3C41.5,23.7,42.9,23.8,44.2,24z"/>
	<path d="M61.4,34.6l5.9-5.9c1.6-1.6,1.6-4.3,0-5.9c-1.6-1.6-4.3-1.6-5.9,0l-5.9,5.9C57.8,30.4,59.8,32.4,61.4,34.6z"/>
	<path d="M18.7,34.6c1.6-2.3,3.6-4.3,5.9-5.9l-5.9-5.9c-1.6-1.6-4.3-1.6-5.9,0c-1.6,1.6-1.6,4.3,0,5.9L18.7,34.6z"/>
	<path d="M5.7,54.3H14c-0.2-1.4-0.3-2.8-0.3-4.2c0-1.4,0.1-2.8,0.3-4.2H5.7c-2.3,0-4.2,1.9-4.2,4.2C1.5,52.4,3.4,54.3,5.7,54.3z"/>
	<path d="M18.7,65.6l-5.9,5.9c-1.6,1.6-1.6,4.3,0,5.9c0.8,0.8,1.9,1.2,3,1.2c1.1,0,2.1-0.4,3-1.2l5.9-5.9
		C22.3,69.8,20.3,67.8,18.7,65.6z"/>
	<path d="M22,50.1c0,1.4,0.2,2.8,0.5,4.2c0.4,1.9,1.2,3.7,2.2,5.3c1.5,2.4,3.5,4.4,5.9,5.9c0.3,0.2,0.7,0.4,1,0.6
		c3.1-3.8,7.2-6.7,12-8.3c2.6-6.5,6.9-12,12.4-16.1c-0.2-0.3-0.4-0.7-0.6-1c-1.5-2.4-3.5-4.4-5.9-5.9c-1.6-1-3.4-1.7-5.3-2.2
		c-1.3-0.3-2.7-0.5-4.2-0.5s-2.8,0.2-4.2,0.5c-1.9,0.4-3.7,1.2-5.3,2.2c-2.4,1.5-4.4,3.5-5.9,5.9c-1,1.6-1.7,3.4-2.2,5.3
		C22.2,47.3,22,48.7,22,50.1z"/>
	<path d="M102.9,56.2c-5.3-8.4-14.7-13.6-24.6-13.6c-4.4,0-8.6,1-12.4,2.8c-1.4,0.6-2.7,1.4-3.9,2.2c-1.5,1-2.8,2.1-4.1,3.3
		c-3.8,3.7-6.6,8.5-7.9,13.9c-3.2,0.3-6.1,1.5-8.5,3.2c-1.6,1.1-3,2.5-4.1,4.1c-0.9,1.2-1.6,2.5-2.2,3.9c-0.8,2.1-1.3,4.3-1.3,6.7
		c0,9.9,8.1,18,18,18h47c0.6,0,1.2,0,1.8-0.1c11.6-0.9,20.7-10.7,20.7-22.4C121.5,67.4,113.6,58.1,102.9,56.2z M99,91.3H52
		c-4.7,0-8.5-3.8-8.5-8.5c0-3.2,1.7-5.9,4.3-7.4c0.8-0.5,1.7-0.8,2.7-1c0.2,0,0.4-0.1,0.6-0.1c0.3,0,0.6-0.1,0.9-0.1
		c1.6,0,3.1,0.4,4.5,1.3c0.3,0.2,0.6,0.2,0.8,0.2c0,0,0,0,0,0c0,0,0,0,0,0c0.9,0,1.6-0.7,1.6-1.6c0-0.1,0-0.3-0.1-0.4
		c-0.1-0.7-0.1-1.4-0.1-2c0-1.1,0.1-2.2,0.3-3.3c0-0.2,0.1-0.5,0.1-0.7c0.9-4.3,3.2-8,6.4-10.8c3.5-3,8-4.8,12.8-4.8
		c5.7,0,11.2,2.5,14.9,6.9c1.4,1.6,2.5,3.4,3.3,5.4c0.2,0.6,0.8,1,1.5,1c0,0,0.1,0,0.1,0l0.2,0c0.3,0,0.6,0,0.8,0
		c1.8,0,3.6,0.4,5.2,1.1c4.7,2.1,7.7,6.7,7.7,11.8C112,85.5,106.2,91.3,99,91.3z"/>
</g>
</svg>
