<?xml version="1.0" encoding="utf-8"?>
<!-- Generator: Adobe Illustrator 19.2.0, SVG Export Plug-In . SVG Version: 6.00 Build 0)  -->
<svg version="1.1" id="Layer_1" xmlns="http://www.w3.org/2000/svg" xmlns:xlink="http://www.w3.org/1999/xlink" x="0px" y="0px"
	 viewBox="0 0 100 102.3" style="enable-background:new 0 0 100 102.3;" xml:space="preserve">
<title>work-outline</title>
<path d="M49.8,74.3c-13.3,0-24.1-10.8-24.1-24.1s10.8-24.1,24.1-24.1s24.1,10.8,24.1,24.1S63.1,74.3,49.8,74.3z M49.8,33
	c-9.5,0-17.2,7.7-17.2,17.2s7.7,17.2,17.2,17.2S67,59.7,67,50.2S59.3,33,49.8,33z"/>
<path d="M49.8,97.7c-1.9,0-3.4-1.5-3.4-3.4v-6.2c0-1.9,1.5-3.4,3.4-3.4s3.4,1.5,3.4,3.4v6.2C53.3,96.1,51.8,97.7,49.8,97.7
	C49.9,97.7,49.8,97.7,49.8,97.7z"/>
<path d="M49.8,15.8c-1.9,0-3.4-1.5-3.4-3.4V5.4c0-1.9,1.5-3.4,3.4-3.4s3.4,1.5,3.4,3.4v6.9C53.3,14.2,51.7,15.8,49.8,15.8z"/>
<path d="M94.2,53.6h-6.5c-1.9,0-3.4-1.5-3.4-3.4s1.5-3.4,3.4-3.4h6.5c1.9,0,3.4,1.5,3.4,3.4S96.1,53.6,94.2,53.6z"/>
<path d="M11.9,53.6H5.4c-1.9,0-3.4-1.5-3.4-3.4s1.5-3.4,3.4-3.4h6.5c1.9,0,3.4,1.5,3.4,3.4S13.9,53.6,11.9,53.6z"/>
<path d="M18,85.2c-1.9,0-3.4-1.6-3.4-3.5c0-0.9,0.4-1.8,1-2.4l4.8-4.8c1.4-1.3,3.5-1.3,4.9,0c1.3,1.4,1.3,3.5,0,4.9l-4.8,4.7
	C19.7,84.8,18.9,85.1,18,85.2z"/>
<path d="M76.2,27.1c-1.9,0-3.4-1.6-3.4-3.5c0-0.9,0.4-1.8,1-2.4l4.8-4.8c1.3-1.3,3.5-1.3,4.9,0c1.3,1.3,1.3,3.5,0,4.9l-4.8,4.7
	C78,26.8,77.1,27.1,76.2,27.1z"/>
<path d="M23.4,27.2c-0.9,0-1.8-0.4-2.4-1l-4.6-4.6c-1.3-1.3-1.3-3.5,0-4.9c1.3-1.3,3.5-1.3,4.9,0l4.6,4.6c1.3,1.3,1.4,3.5,0,4.9
	C25.2,26.8,24.4,27.2,23.4,27.2z"/>
<path d="M81,84.9c-0.9,0-1.8-0.4-2.4-1l-4.5-4.4c-1.3-1.3-1.3-3.5,0-4.9c1.3-1.3,3.5-1.3,4.9,0l4.5,4.5c1.3,1.4,1.3,3.5-0.1,4.9
	C82.7,84.5,81.9,84.9,81,84.9z"/>
</svg>
