<?xml version="1.0" encoding="utf-8"?>
<!-- Generator: Adobe Illustrator 19.2.0, SVG Export Plug-In . SVG Version: 6.00 Build 0)  -->
<svg version="1.1" id="Layer_1" xmlns="http://www.w3.org/2000/svg" xmlns:xlink="http://www.w3.org/1999/xlink" x="0px" y="0px"
	 viewBox="0 0 87.8 85.4" style="enable-background:new 0 0 87.8 85.4;" xml:space="preserve">
<path d="M66.7,35.3c0.3,0,0.6,0,0.9-0.1l4.6-1.5c1.5-0.5,2.2-2,1.8-3.5c-0.5-1.5-2-2.2-3.5-1.8l-4.6,1.5c-1.5,0.5-2.2,2-1.8,3.5
	C64.4,34.5,65.5,35.3,66.7,35.3z"/>
<path d="M26.9,21.9c0.5,0.7,1.4,1.1,2.2,1.1c0.6,0,1.1-0.2,1.6-0.5c1.2-0.9,1.5-2.6,0.6-3.9l-2.9-3.9c-0.9-1.2-2.6-1.5-3.9-0.6
	C23.4,15,23.1,16.8,24,18L26.9,21.9z"/>
<path d="M56.2,22.5c0.5,0.4,1.1,0.5,1.6,0.5c0.9,0,1.7-0.4,2.2-1.1l2.9-3.9c0.9-1.2,0.6-3-0.6-3.9c-1.2-0.9-3-0.6-3.9,0.6l-2.9,3.9
	C54.7,19.9,55,21.6,56.2,22.5z"/>
<path d="M14.8,33.6l4.6,1.5c0.3,0.1,0.6,0.1,0.9,0.1c1.2,0,2.3-0.7,2.6-1.9c0.5-1.5-0.3-3-1.8-3.5l-4.6-1.5c-1.5-0.5-3,0.3-3.5,1.8
	C12.5,31.6,13.3,33.2,14.8,33.6z"/>
<path d="M43.5,18.4c1.5,0,2.8-1.2,2.8-2.8v-4.9v0C46.2,9.2,45,8,43.5,8s-2.8,1.2-2.8,2.8v0v4.9C40.7,17.2,41.9,18.4,43.5,18.4z"/>
<path d="M84,44.1H61.4c0.3-1.3,0.5-2.7,0.5-4.1c0-10.1-8.2-18.4-18.4-18.4s-18.4,8.2-18.4,18.4c0,1.5,1.2,2.8,2.8,2.8
	c1.5,0,2.8-1.2,2.8-2.8c0-7.1,5.8-12.9,12.9-12.9S56.3,33,56.3,40.1c0,1.4-0.2,2.8-0.7,4.1H40.1c-1.5,0-2.8,1.2-2.8,2.8
	s1.2,2.8,2.8,2.8h17.4c0,0,0,0,0,0c0,0,0,0,0,0H84c1.5,0,2.8-1.2,2.8-2.8S85.5,44.1,84,44.1z"/>
<path d="M53.8,63.2c0-1.5-1.2-2.8-2.8-2.8H21.7c-1.5,0-2.8,1.2-2.8,2.8c0,1.5,1.2,2.8,2.8,2.8H51C52.6,66,53.8,64.8,53.8,63.2z"/>
<path d="M65.7,51.9H3.8c-1.5,0-2.8,1.2-2.8,2.8s1.2,2.8,2.8,2.8h61.9c1.5,0,2.8-1.2,2.8-2.8C68.4,53.2,67.2,51.9,65.7,51.9z"/>
<path d="M54,69.2h-5.9c-1.5,0-2.8,1.2-2.8,2.8s1.2,2.8,2.8,2.8H54c1.5,0,2.8-1.2,2.8-2.8S55.5,69.2,54,69.2z"/>
</svg>
