<?xml version="1.0" encoding="utf-8"?>
<!-- Generator: Adobe Illustrator 19.2.0, SVG Export Plug-In . SVG Version: 6.00 Build 0)  -->
<svg version="1.1" id="Layer_1" xmlns="http://www.w3.org/2000/svg" xmlns:xlink="http://www.w3.org/1999/xlink" x="0px" y="0px"
	 viewBox="0 0 125 125" style="enable-background:new 0 0 125 125;" xml:space="preserve">
<path d="M53.5,51.9c-0.3,0.9,0,1.9,0.6,2.5l4.2,4.1l-1,5.8c-0.2,0.9,0.2,1.8,1,2.4c0.8,0.5,1.7,0.6,2.6,0.2l5.2-2.8l5.2,2.8
	c0.4,0.2,0.7,0.3,1.1,0.3c0.5,0,1-0.2,1.4-0.5c0.8-0.5,1.1-1.5,1-2.4l-1-5.8l4.2-4.1c0.7-0.6,0.9-1.6,0.6-2.5
	c-0.3-0.9-1.1-1.5-2-1.7l-5.9-0.9l-2.6-5.3c-0.4-0.8-1.3-1.4-2.2-1.4c-0.9,0-1.8,0.5-2.2,1.4l-2.6,5.3l-5.9,0.9
	C54.5,50.4,53.8,51,53.5,51.9z M63.3,54.1c0.8-0.1,1.5-0.6,1.8-1.3l1-2l1,2c0.4,0.7,1,1.2,1.8,1.3l2.2,0.3L69.6,56
	c-0.6,0.6-0.8,1.4-0.7,2.2l0.4,2.2l-2-1.1c-0.4-0.2-0.7-0.3-1.1-0.3s-0.8,0.1-1.1,0.3l-2,1.1l0.4-2.2c0.1-0.8-0.1-1.6-0.7-2.2
	L61,54.4L63.3,54.1z"/>
<path d="M122.6,63.6c-0.3-0.9-1.1-1.5-2-1.7l-7.7-1.1l-3.4-6.9c-0.4-0.8-1.3-1.4-2.2-1.4c-0.9,0-1.8,0.5-2.2,1.4l-3.4,6.9L94.1,62
	c-0.9,0.1-1.7,0.8-2,1.7c-0.3,0.9,0,1.9,0.6,2.5l5.5,5.4L97,79.1c-0.2,0.9,0.2,1.8,1,2.4c0.8,0.5,1.7,0.6,2.6,0.2l6.8-3.6l6.8,3.6
	c0.4,0.2,0.7,0.3,1.1,0.3c0.5,0,1-0.2,1.4-0.5c0.8-0.5,1.1-1.5,1-2.4l-1.3-7.6l5.5-5.4C122.7,65.5,122.9,64.5,122.6,63.6z
	 M112.1,68.9c-0.6,0.6-0.8,1.4-0.7,2.2l0.7,4l-3.6-1.9c-0.4-0.2-0.7-0.3-1.1-0.3s-0.8,0.1-1.1,0.3l-3.6,1.9l0.7-4
	c0.1-0.8-0.1-1.6-0.7-2.2l-2.9-2.8l4-0.6c0.8-0.1,1.5-0.6,1.8-1.3l1.8-3.7l1.8,3.7c0.4,0.7,1,1.2,1.8,1.3l4,0.6L112.1,68.9z"/>
<path d="M87.9,27.3l-1.3,7.6c-0.2,0.9,0.2,1.8,1,2.4c0.8,0.5,1.7,0.6,2.6,0.2l6.8-3.6l6.8,3.6c0.4,0.2,0.7,0.3,1.1,0.3
	c0.5,0,1-0.2,1.4-0.5c0.8-0.5,1.1-1.5,1-2.4l-1.3-7.6l5.5-5.4c0.7-0.6,0.9-1.6,0.6-2.5c-0.3-0.9-1.1-1.5-2-1.7l-7.7-1.1l-3.4-6.9
	c-0.4-0.8-1.3-1.4-2.2-1.4c-0.9,0-1.8,0.5-2.2,1.4l-3.4,6.9l-7.7,1.1c-0.9,0.1-1.7,0.8-2,1.7c-0.3,0.9,0,1.9,0.6,2.5L87.9,27.3z
	 M93.3,21.2c0.8-0.1,1.5-0.6,1.8-1.3l1.8-3.7l1.8,3.7c0.4,0.7,1,1.2,1.8,1.3l4,0.6l-2.9,2.8c-0.6,0.6-0.8,1.4-0.7,2.2l0.7,4
	l-3.6-1.9c-0.4-0.2-0.7-0.3-1.1-0.3s-0.8,0.1-1.1,0.3l-3.6,1.9l0.7-4c0.1-0.8-0.1-1.6-0.7-2.2l-2.9-2.8L93.3,21.2z"/>
<path d="M94.2,105c-29.4-2.9-51.5-27.3-51.5-56.9c0-15.4,6-29.8,17-40.7c0.7-0.7,0.9-1.8,0.5-2.7c-0.4-0.9-1.4-1.5-2.4-1.4
	C27.5,5.5,3.7,31,3.7,61.4c0,32.2,26.2,58.4,58.4,58.4c11.9,0,23.4-3.6,33.2-10.4c0.8-0.6,1.2-1.6,1-2.6S95.2,105.1,94.2,105z
	 M62.1,114.9c-29.5,0-53.5-24-53.5-53.5C8.6,35.8,27,13.9,51.6,9c-9,11-13.9,24.7-13.9,39.1c0,29.8,20.7,54.8,49.2,60.7
	C79.3,112.8,70.8,114.9,62.1,114.9z"/>
</svg>
