<?xml version="1.0" encoding="utf-8"?>
<!-- Generator: Adobe Illustrator 19.2.0, SVG Export Plug-In . SVG Version: 6.00 Build 0)  -->
<svg version="1.1"
	 id="Layer_1" xmlns:cc="http://creativecommons.org/ns#" xmlns:dc="http://purl.org/dc/elements/1.1/" xmlns:inkscape="http://www.inkscape.org/namespaces/inkscape" xmlns:rdf="http://www.w3.org/1999/02/22-rdf-syntax-ns#" xmlns:sodipodi="http://sodipodi.sourceforge.net/DTD/sodipodi-0.dtd" xmlns:svg="http://www.w3.org/2000/svg"
	 xmlns="http://www.w3.org/2000/svg" xmlns:xlink="http://www.w3.org/1999/xlink" x="0px" y="0px" viewBox="0 0 125 125"
	 style="enable-background:new 0 0 125 125;" xml:space="preserve">
<g transform="translate(0,-952.36218)">
	<path d="M62.3,960.4c-2.2,0-3.9,1.8-3.9,4c0,0,0,0,0,0v7.9c0,2.2,1.7,4,3.9,4c2.2,0,3.9-1.7,4-3.9c0,0,0-0.1,0-0.1v-7.9
		c0-2.2-1.7-4-3.8-4C62.4,960.4,62.4,960.4,62.3,960.4z M38.8,964.3c-2.2,0-3.9,1.7-3.9,3.9c0,0.8,0.2,1.6,0.7,2.3l5.2,7.9
		c1.2,1.8,3.6,2.3,5.5,1.1c1.8-1.2,2.3-3.6,1.1-5.5c0,0,0,0,0,0l-5.2-7.9C41.4,965,40.1,964.3,38.8,964.3z M85.8,964.3
		c-1.3,0-2.5,0.7-3.2,1.8l-5.2,7.9c-1.2,1.8-0.7,4.3,1.1,5.5c1.8,1.2,4.2,0.7,5.5-1.1c0,0,0,0,0,0l5.2-7.9c1.2-1.8,0.8-4.2-1-5.5
		C87.5,964.5,86.7,964.3,85.8,964.3z M20.1,974.8c-2.2,0.2-3.7,2.2-3.5,4.3c0.1,1.2,0.8,2.2,1.8,2.9l7.8,5.2
		c1.7,1.4,4.1,1.1,5.5-0.6c1.4-1.7,1.1-4.2-0.5-5.5c-0.2-0.2-0.4-0.3-0.6-0.4l-7.8-5.2C21.9,975,21,974.7,20.1,974.8z M104.1,974.8
		c-0.7,0-1.5,0.3-2.1,0.7l-7.8,5.2c-1.9,1-2.6,3.4-1.6,5.3c1,1.9,3.4,2.6,5.3,1.6c0.2-0.1,0.4-0.3,0.6-0.4l7.8-5.2
		c1.8-1.2,2.3-3.6,1.1-5.4C106.7,975.4,105.5,974.8,104.1,974.8z M62.4,978.8c-26.2,0-47.5,20.9-49.5,47.1H7.5c-0.1,0-0.3,0-0.4,0
		c-2.2,0.1-3.8,2-3.7,4.1c0.1,2.2,2,3.8,4.1,3.7h8.9h9.4h0.4h72.2c0.2,0,0.4,0,0.6,0h9.2h0.4h8.7c2.2,0,3.9-1.7,4-3.9
		c0-2.2-1.7-4-3.9-4c0,0-0.1,0-0.1,0h-5.4C109.9,999.6,88.5,978.8,62.4,978.8z M62.4,986.6c21.8,0,39.5,17.2,41.5,39.3h-5.3H25.8
		h-4.9C22.8,1003.8,40.6,986.6,62.4,986.6z M16.2,1036.4c-2.2,0.1-3.8,1.9-3.7,4.1c0.1,2.2,1.9,3.8,4.1,3.7c0,0,0,0,0.1,0h91.5
		c2.2,0,3.9-1.7,4-3.9c0-2.2-1.7-4-3.9-4c0,0-0.1,0-0.1,0H16.6C16.5,1036.4,16.3,1036.4,16.2,1036.4z M25.4,1046.8
		c-2.2,0.1-3.8,2-3.7,4.1c0.1,2.2,2,3.8,4.1,3.7h73c2.2,0,3.9-1.7,4-3.9c0-2.2-1.7-4-3.9-4c0,0-0.1,0-0.1,0h-73
		C25.7,1046.8,25.6,1046.8,25.4,1046.8z M34.5,1057.3c-2.2,0.1-3.8,2-3.7,4.1c0.1,2.2,2,3.8,4.1,3.7h54.9c2.2,0,3.9-1.7,4-3.9
		c0-2.2-1.7-4-3.9-4c0,0-0.1,0-0.1,0H34.9C34.8,1057.3,34.6,1057.3,34.5,1057.3z"/>
</g>
</svg>
